<?xml version="1.0" standalone="no"?>
<!DOCTYPE svg PUBLIC "-//W3C//DTD SVG 1.1//EN" "http://www.w3.org/Graphics/SVG/1.1/DTD/svg11.dtd">
<svg xmlns="http://www.w3.org/2000/svg">
<metadata>Copyright (C) 2019 by original authors @ fontello.com</metadata>
<defs>
<font id="fontello" horiz-adv-x="1000" >
<font-face font-family="fontello" font-weight="400" font-stretch="normal" units-per-em="1000" ascent="850" descent="-150" />
<missing-glyph horiz-adv-x="1000" />
<glyph glyph-name="news" unicode="&#xe800;" d="M726 575h-257v-257h257v257z m86-428v-86h-429v86h429z m0 514v-429h-429v429h429z m429-514v-86h-343v86h343z m0 171v-86h-343v86h343z m0 172v-86h-343v86h343z m0 171v-86h-343v86h343z m-1029-643v643h-86v-643c0-23 20-43 43-43a43 43 0 0 1 43 43z m1114 0v729h-1028v-729c0-15-3-29-8-43h994a43 43 0 0 1 42 43z m86 814v-814a129 129 0 0 0-128-129h-1115a129 129 0 0 0-128 129v729h171v85h1200z" horiz-adv-x="1450" />

<glyph glyph-name="gift" unicode="&#xe801;" d="M691-16v533h-239v-533c0-26 22-39 48-39h143c26 0 48 13 48 39z m-340 628h145l-93 120a68 68 0 0 1-52 23 72 72 0 0 1 0-143z m512 71c0 40-32 72-71 72-26 0-43-14-52-23l-93-120h145c39 0 71 32 71 71z m280-190v-238c0-14-10-24-24-24h-71v-310c0-39-32-71-72-71h-809a72 72 0 0 0-72 71v310h-71a24 24 0 0 0-24 24v238c0 13 10 24 24 24h327c-92 0-166 74-166 166s74 167 166 167c50 0 96-21 125-57l96-123 95 123c29 36 75 57 125 57 92 0 166-74 166-167s-74-166-166-166h327c14 0 24-11 24-24z" horiz-adv-x="1167" />

<glyph glyph-name="magic-wand" unicode="&#xe802;" d="M710 495l179 179-65 65-179-178 66-66z m274 179c0-10-4-20-11-27l-786-786a38 38 0 0 0-28-11 38 38 0 0 0-27 11l-121 121a38 38 0 0 0-11 28c0 10 4 20 11 27l786 786a38 38 0 0 0 27 11c11 0 20-4 28-11l121-121c7-8 11-17 11-28z m-826 116l60-18-60-18-18-60-18 60-60 18 60 18 18 60 18-60z m214-99l120-36-120-37-37-120-36 120-120 37 120 36 36 120 37-120z m568-292l60-18-60-18-18-60-18 60-60 18 60 18 18 60 18-60z m-391 391l60-18-60-18-18-60-18 60-60 18 60 18 18 60 18-60z" horiz-adv-x="1000" />

<glyph glyph-name="print" unicode="&#xe803;" d="M250-67h583v167h-583v-167z m0 417h583v250h-104a63 63 0 0 0-62 63v104h-417v-417z m750-42c0 23-19 42-42 42-22 0-41-19-41-42 0-22 19-41 41-41 23 0 42 19 42 41z m83 0v-270c0-12-9-21-20-21h-146v-105a63 63 0 0 0-63-62h-625a63 63 0 0 0-62 62v105h-146a21 21 0 0 0-21 21v270c0 69 57 125 125 125h42v355a63 63 0 0 0 62 62h438c34 0 82-19 107-44l98-99c25-25 45-72 45-107v-167h41c69 0 125-56 125-125z" horiz-adv-x="1083" />

<glyph glyph-name="whatsapp" unicode="&#xe804;" d="M641 300c11 0 118-55 122-63 1-3 1-7 1-10 0-16-5-34-11-49-15-36-75-59-112-59-32 0-96 27-124 40-93 42-151 114-207 196-25 36-47 80-46 125v5c1 43 17 73 48 102 10 9 20 14 34 14 8 0 15-2 24-2 17 0 21-5 27-22 5-11 38-98 38-105 0-24-45-52-45-67 0-3 1-6 3-10 15-30 42-65 67-88 30-29 62-47 98-65a29 29 0 0 1 14-5c20 0 52 63 69 63z m-132-343c225 0 409 182 409 406 0 223-184 406-409 406s-409-183-409-406a402 402 0 0 1 78-238l-51-150 158 49a414 414 0 0 1 224-67z m0 893c271 0 491-218 491-487 0-269-220-487-491-487a494 494 0 0 0-237 61l-272-87 89 262a482 482 0 0 0-71 251c0 269 220 487 491 487z" horiz-adv-x="1000" />

<glyph glyph-name="twitter" unicode="&#xe805;" d="M1250 731a546 546 0 0 0-128-130c0-11 0-22 0-33 0-334-257-718-729-718-145 0-280 41-393 113 21-2 40-3 62-3 120 0 230 40 318 108-113 2-207 75-240 175 16-2 32-4 49-4 23 0 46 3 67 9-117 23-205 125-205 247v4c34-19 74-31 116-33-69 46-115 123-115 211 0 47 13 90 35 127 126-153 316-253 529-264a281 281 0 0 0-7 58c0 139 114 252 256 252 74 0 141-30 188-80a509 509 0 0 1 162 61 252 252 0 0 0-112-139 520 520 0 0 1 147 39z" horiz-adv-x="1250" />

<glyph glyph-name="comment" unicode="&#xe806;" d="M450 173h-24c-7 0-15 0-22 1a280 280 0 0 0-26 2c-5-5-16-15-33-28a738 738 0 0 0-58-43c-23-14-47-28-72-40-25-12-48-20-70-23h-1l-2-1a23 23 0 0 0-22 7 26 26 0 0 0-7 18c0 2 0 4 1 5a21 21 0 0 0 1 5h-1c9 14 21 36 36 65 15 29 23 56 23 81v2a301 301 0 0 0-77 55 310 310 0 0 0-54 72 345 345 0 0 0-31 83 362 362 0 0 0-11 86c0 45 12 89 34 129 23 40 55 75 95 105 40 29 87 53 141 70 53 17 111 26 172 26 61 0 118-9 171-26 53-17 100-41 139-70 40-30 71-65 94-105 23-40 34-84 34-129 1-52-10-99-31-142a327 327 0 0 0-91-110c-39-30-85-53-138-70-53-17-110-25-170-25z m-100 73l37-3c17-2 31-3 45-3h20c51 0 99 7 143 21 44 13 82 33 114 58a280 280 0 0 1 76 89c18 34 28 71 28 112a194 194 0 0 1-30 102c-19 32-45 60-78 83-33 24-73 43-118 57a494 494 0 0 1-145 20c-51 0-100-7-145-20-46-14-86-33-120-57-34-23-61-51-80-83a194 194 0 0 1-29-102c0-44 11-88 33-133s56-79 102-103l37-19-3-41-2-19c-1-12-8-34-20-67 19 11 38 25 56 40 19 15 31 26 36 32l43 36z m733 0c0-49-12-93-36-131-24-37-61-69-111-94v-3c0-22 5-47 13-76 9-29 16-49 23-61a21 21 0 0 0 2-9 22 22 0 0 0-22-22h-6c-38 6-75 25-113 57-38 32-61 53-69 63-9-1-16-2-22-2a363 363 0 0 0-20 0h-21c-34 0-67 3-97 9a416 416 0 0 0-87 26 348 348 0 0 0-131 98c2 2 20 2 56 2 35 0 49 0 42-1a299 299 0 0 1 96-50c35-11 76-17 121-17h21c14 0 24 1 31 3l36 5 20-27c13-17 36-38 69-62-3 10-5 31-6 62l-2 47 32 16c41 20 70 44 87 71 18 28 27 60 27 96 0 30-5 56-16 78-10 21-29 43-58 63 3 11 7 23 10 36 3 13 5 25 7 37 44-26 76-57 95-92 20-35 29-76 29-122z" horiz-adv-x="1083" />

<glyph glyph-name="user-group" unicode="&#xe807;" d="M729 34l26-14c18-10 26-23 26-38v-79c0-15-5-28-15-38-11-10-23-15-37-15h-676c-15 0-27 5-37 15a50 50 0 0 0-16 38v79c0 14 9 26 26 37l27 15 202 110c-37 29-63 68-77 117-15 49-22 87-22 116v132c0 22 7 44 21 65a235 235 0 0 0 54 59 291 291 0 0 0 75 43 233 233 0 0 0 86 17c29 0 58-6 86-17 28-11 53-25 74-43 22-17 40-37 53-59 13-21 20-43 20-65v-132c0-32-6-72-19-119-13-48-37-86-74-115l197-109z m-10-122v56a26 26 0 0 1-7 5l-8 4a5 5 0 0 0-2 1 32 32 0 0 1-4 2l-196 108a66 66 0 0 0-22 21 58 58 0 0 0-10 29c-1 10 0 20 4 30a61 61 0 0 0 19 25c27 20 45 50 55 89 10 39 15 70 15 95v132c0 22-18 48-52 78a178 178 0 0 1-119 44c-45 0-85-15-120-44-35-30-53-56-53-78v-132c0-25 6-56 17-95 12-39 31-69 58-89 8-7 14-15 18-25 4-10 6-20 4-30a58 58 0 0 0-9-29c-6-9-14-15-23-20l-202-110a4 4 0 0 1-2-1 8 8 0 0 1-2-1 27 27 0 0 1-8-4l-7-5v-56h656z m228 278l27-15c17-10 26-22 26-38v-78c0-15-5-28-16-38s-22-15-37-15h-103a358 358 0 0 1-12 36 63 63 0 0 1-20 27h126v55a280 280 0 0 1-7 5 27 27 0 0 1-8 3 6 6 0 0 1-3 1 27 27 0 0 0-3 2l-199 108a66 66 0 0 0-23 21 58 58 0 0 0-9 29c-2 10 0 20 4 30a61 61 0 0 0 19 25c27 21 45 51 56 90 11 39 16 70 16 94v132c0 23-17 49-52 79a184 184 0 0 1-122 44 199 199 0 0 1-119-40 154 154 0 0 1-39 6l-40 2c23 27 52 50 88 68a241 241 0 0 0 110 27c30 0 59-6 87-17 28-11 53-26 76-43 22-18 40-38 53-60 14-22 21-44 21-66v-132c0-31-7-71-21-119-13-47-38-86-75-114l199-109z" horiz-adv-x="1000" />

<glyph glyph-name="user" unicode="&#xe808;" d="M501 788c-27 0-54-6-80-16a293 293 0 0 1-70-38c-21-16-38-33-50-51-13-18-19-36-19-52v-156c0-31 7-70 23-118 15-47 39-84 71-110a62 62 0 0 0 24-57 73 73 0 0 0-12-29 60 60 0 0 0-24-20l-275-130a69 69 0 0 1-16-9c-7-5-10-14-10-27v-64l875 1v61c0 17-5 28-13 32a102 102 0 0 1-13 6l-273 129a63 63 0 0 0-31 82c4 10 10 18 19 25 34 26 57 63 71 111 15 48 22 87 22 117v156c0 17-7 35-20 53a230 230 0 0 1-50 50 291 291 0 0 1-71 38 219 219 0 0 1-78 16z m0 62c34 0 68-6 102-20 33-13 63-29 90-50 26-21 48-45 64-71 17-26 25-52 25-78v-156c0-19-2-41-6-66-4-25-10-50-19-76a372 372 0 0 0-37-74c-15-24-33-44-54-61l272-130 31-17c21-12 31-26 31-45v-95c0-16-6-31-18-43-12-12-27-18-44-18h-875a60 60 0 0 0-45 18 59 59 0 0 0-18 44v94c0 17 10 32 31 44l32 18 274 130a237 237 0 0 0-55 64c-15 24-28 50-37 75a404 404 0 0 0-20 76 404 404 0 0 0-6 62v156c0 26 8 52 24 78a277 277 0 0 0 64 71 344 344 0 0 0 91 50 284 284 0 0 0 103 20z" horiz-adv-x="1000" />

<glyph glyph-name="restaurant" unicode="&#xe809;" d="M303 287l-238 231c-43 44-65 95-65 155 0 60 22 112 65 155l400-385-162-156z m386 99l-86-81 392-377-78-78-392 380-392-380-78 78c284 276 467 455 551 538-21 42-24 90-9 143 15 54 45 103 90 146 54 52 114 83 181 92 67 10 122-6 164-48 41-41 58-95 49-160-9-65-40-123-94-175-43-44-93-73-149-87-55-15-105-12-149 9z" horiz-adv-x="1083" />

<glyph glyph-name="wifi" unicode="&#xe80a;" d="M32 588c189 175 415 262 676 262 262 0 487-87 677-262l32-32-32-28-133-131-28 28c-146 133-317 200-516 200s-370-67-515-200l-29-28-132 131-32 28 32 32z m1122-238l35-31-32-31-104-100-28-29-32 25c-84 73-179 110-285 110-105 0-200-37-284-110l-32-25-28 29-105 100-31 31 35 31c120 106 259 163 417 169h28c171 0 320-56 446-169z m-446-500l-196 194-34 31 37 31c66 42 130 63 193 63 74 0 140-21 196-63l35-31-31-31-168-163-32-31z" horiz-adv-x="1417" />

<glyph glyph-name="share" unicode="&#xe80b;" d="M844 163c43 0 80-16 110-46 31-31 46-68 46-111 0-43-15-80-46-110-30-31-67-46-110-46-43 0-80 15-111 46-30 30-45 67-45 110 0 7 0 13 1 19 0 6 1 12 3 17l-414 211c-14-18-32-32-53-43a150 150 0 0 0-69-16c-43 0-79 15-110 46-31 30-46 67-46 110 0 43 15 80 46 110 31 31 67 46 110 46a152 152 0 0 0 116-51l419 204a165 165 0 0 0-3 35c0 43 15 80 45 110 31 31 68 46 111 46 43 0 80-15 110-46 31-30 46-67 46-110 0-43-15-80-46-111-30-30-67-45-110-45-26 0-50 5-72 17a160 160 0 0 0-54 47l-414-201c2-8 4-16 6-25a148 148 0 0 0 1-47 137 137 0 0 0-4-20l412-210c13 20 31 35 53 46a153 153 0 0 0 72 18z m0 625a90 90 0 0 1-67-28 90 90 0 0 1-27-66c0-26 9-48 27-67a90 90 0 0 1 67-27 90 90 0 0 1 66 27 90 90 0 0 1 28 67 90 90 0 0 1-28 66 90 90 0 0 1-66 28z m-688-532a90 90 0 0 1 67 28 90 90 0 0 1 27 66 90 90 0 0 1-27 66 90 90 0 0 1-67 28 90 90 0 0 1-66-28 90 90 0 0 1-27-66c0-26 9-48 27-66a90 90 0 0 1 66-28z m688-344a90 90 0 0 1 66 28 90 90 0 0 1 28 66 90 90 0 0 1-28 67 90 90 0 0 1-66 27 90 90 0 0 1-67-27 90 90 0 0 1-27-67c0-26 9-48 27-66a90 90 0 0 1 67-28z" horiz-adv-x="1000" />

<glyph glyph-name="reply" unicode="&#xe80c;" d="M1168-67h-2a29 29 0 0 0-23 10 40 40 0 0 0-10 24c0 3-4 23-14 60s-34 77-72 119c-38 43-95 82-171 116-75 35-179 53-311 53v-214a36 36 0 0 0-6-20 38 38 0 0 0-15-14 41 41 0 0 0-21-3 35 35 0 0 0-19 8l-490 400a38 38 0 0 0-10 13 37 37 0 0 0 0 31 38 38 0 0 0 10 14l490 395a35 35 0 0 0 19 8c7 1 14 0 21-3a39 39 0 0 0 15-14 35 35 0 0 0 6-20v-208c55-2 107-7 155-17 48-10 94-23 136-40 42-17 80-38 115-62 35-25 67-53 94-85 45-51 77-107 97-166 20-60 34-115 40-166 6-51 8-94 5-130-3-35-4-54-4-57a39 39 0 0 0-12-23 33 33 0 0 0-23-9z m-641 456c95 0 175-7 243-21 67-15 124-33 171-56 46-22 85-47 115-76 29-28 55-56 75-84-5 45-18 93-37 143-19 50-48 97-87 141a425 425 0 0 1-87 77 532 532 0 0 1-110 56 671 671 0 0 1-132 33 980 980 0 0 1-151 11 37 37 0 0 0-26 12 36 36 0 0 0-12 26v167l-392-317 392-321v172c0 5 1 10 3 14 2 5 5 9 8 13 4 3 8 5 13 7a37 37 0 0 0 14 3z" horiz-adv-x="1208" />

<glyph glyph-name="bus" unicode="&#xe80d;" d="M312 302a109 109 0 0 1-81-39h-41c-31 0-60 15-60 49 0 25-1 108 38 108 7 0 39-26 80-26 14 0 28 2 41 7-1-7-2-13-2-20 0-28 9-56 25-79z m329-195c0-50-33-80-82-80h-268c-49 0-82 30-82 80 0 69 16 176 106 176 10 0 48-43 110-43 61 0 99 43 110 43 90 0 106-107 106-176z m-314 392a79 79 0 0 0-79-79 79 79 0 0 0-78 79 79 79 0 0 0 78 78 79 79 0 0 0 79-78z m216-118a118 118 0 1 0-236 0 118 118 0 0 0 236 0z m176-69c0-34-28-49-59-49h-41a109 109 0 0 1-82 39c16 23 25 51 25 79 0 7 0 13-1 20 13-5 26-7 41-7 41 0 73 26 79 26 39 0 38-83 38-108z m-39 187a79 79 0 0 0-78-79 79 79 0 0 0-79 79 79 79 0 0 0 79 78 79 79 0 0 0 78-78z m-468-327a71 71 0 0 1-70 71 71 71 0 0 1-71-71c0-40 31-72 71-72a71 71 0 0 1 70 72z m567 0a71 71 0 0 1-71 71 71 71 0 0 1-71-71c0-40 32-72 71-72a71 71 0 0 1 71 72z m-26 221l-39 214a36 36 0 0 1-35 29h-508a36 36 0 0 1-35-29l-40-214a36 36 0 0 1 35-43h587c23 0 39 20 35 43z m-125 341a26 26 0 0 1-26 27h-354c-15 0-27-12-27-27 0-15 12-27 27-27h354c15 0 26 12 26 27z m222-404v-337h-71v-71a71 71 0 0 0-71-72 71 71 0 0 0-71 72v71h-425v-71a71 71 0 0 0-70-72 71 71 0 0 0-71 72v71h-71v337c0 45 4 79 14 124l57 253c10 89 165 143 354 143 188 0 343-54 354-143l58-253c10-45 13-79 13-124z" horiz-adv-x="870" />

<glyph glyph-name="star-fill" unicode="&#xe80e;" d="M521 850c15 0 28-4 41-11 12-7 21-18 27-30l118-243 271-40c14-2 26-7 37-16 11-8 19-19 23-33a72 72 0 0 0-18-74l-198-196 45-273c3-14 2-27-4-40a75 75 0 0 0-26-31 69 69 0 0 0-21-10 85 85 0 0 0-41-1 68 68 0 0 0-18 7l-236 126-237-126c-5-3-11-6-17-7a85 85 0 0 0-41 1 75 75 0 0 0-47 41 63 63 0 0 0-5 40l46 273-198 196a72 72 0 0 0-18 74c4 13 12 24 23 33 11 9 23 14 37 16l271 40 118 243c6 13 15 23 27 30 12 7 26 11 41 11z" horiz-adv-x="1042" />

<glyph glyph-name="facebook" unicode="&#xe80f;" d="M500 843v-159h-91c-71 0-84-35-84-86v-114h169l-22-178h-147v-456h-177v456h-148v178h148v131c0 152 89 235 220 235 63 0 116-5 132-7z" horiz-adv-x="500" />

<glyph glyph-name="google-plus-fill" unicode="&#xe810;" d="M597 344c0 16-2 30-4 42h-236v-86h142c-5-37-43-107-142-107-85 0-155 70-155 157 0 87 70 158 155 158 49 0 81-21 100-39l68 66a242 242 0 0 1-168 65c-138 0-250-112-250-250 0-138 112-250 250-250 144 0 240 102 240 244z m225-30h71v72h-71v71h-72v-71h-72v-72h72v-71h72v71z m178 349v-625c0-104-84-188-187-188h-625a188 188 0 0 0-188 188v625c0 103 84 187 188 187h625c103 0 187-84 187-187z" horiz-adv-x="1000" />

<glyph glyph-name="tumblr-fill" unicode="&#xe811;" d="M740-18l-41 119c-15-7-45-14-67-14-66-2-80 46-80 82v259h167v126h-166v213h-123c-2 0-5-2-5-7-8-64-38-179-165-224v-108h85v-272c0-93 68-226 250-223 61 2 130 27 145 49z m260 681v-625c0-104-84-188-187-188h-625a188 188 0 0 0-188 188v625c0 103 84 187 188 187h625c103 0 187-84 187-187z" horiz-adv-x="1000" />

<glyph glyph-name="linkedin-fill" unicode="&#xe812;" d="M910 850h-820a90 90 0 0 1-90-90v-820c0-49 41-90 90-90h820a90 90 0 0 1 90 90v820a90 90 0 0 1-90 90z m-601-864a26 26 0 0 0-26-26h-112a26 26 0 0 0-26 26v470c0 15 12 27 26 27h112c15 0 26-12 26-27v-470z m-82 541a106 106 0 1 0 0 213 106 106 0 0 0 0-213z m668-543c0-13-11-24-24-24h-120a24 24 0 0 0-25 24v221c0 33 10 144-85 144-75 0-90-76-93-110v-255c0-13-10-24-24-24h-116a24 24 0 0 0-24 24v474c0 14 11 25 24 25h116c14 0 24-11 24-25v-41c28 42 69 74 156 74 192 0 191-180 191-279v-228z" horiz-adv-x="1000" />

<glyph glyph-name="star-blank" unicode="&#xe813;" d="M673 517l345-50-249-247 5-36 53-310-306 163-307-163 7 38 47 272 5 36-249 247 344 50 17 35 136 280 152-315z m-152 314c-12 0-22-2-31-8a51 51 0 0 1-20-22l-123-252-9-2-272-39a54 54 0 0 1-27-13c-8-7-14-15-18-24a53 53 0 0 1 14-54l205-204-1-9-46-274c-2-10-1-19 3-28a57 57 0 0 1 35-31 66 66 0 0 1 32-1 40 40 0 0 1 12 6l246 130 9-4 236-127c4-2 9-4 13-5a66 66 0 0 1 32 1c5 2 10 4 15 7 9 7 15 14 20 24 4 9 5 18 3 29l-47 282 205 204a53 53 0 0 1 14 54 54 54 0 0 1-18 25 56 56 0 0 1-27 12l-282 41-4 9-118 243a51 51 0 0 1-20 22 58 58 0 0 1-31 8z" horiz-adv-x="1042" />

<glyph glyph-name="twitter-fill" unicode="&#xe814;" d="M833 536a289 289 0 0 0-78-22 138 138 0 0 1 60 76 272 272 0 0 0-87-33 136 136 0 0 1-100 43 137 137 0 0 1-136-137c0-10 0-21 3-31a389 389 0 0 0-283 143 139 139 0 0 1-19-69c0-47 22-89 60-114-23 1-45 8-65 17v-1c0-66 50-122 112-134a114 114 0 0 0-33-5c-9 0-17 1-25 2a138 138 0 0 1 127-95 275 275 0 0 0-202-56 390 390 0 0 1 209-62c252 0 390 209 390 390 0 6 0 11-1 17a263 263 0 0 1 68 71z m167 127v-625c0-104-84-188-187-188h-625a188 188 0 0 0-188 188v625c0 103 84 187 188 187h625c103 0 187-84 187-187z" horiz-adv-x="1000" />

<glyph glyph-name="facebook-fill" unicode="&#xe815;" d="M813 850c103 0 187-84 187-187v-625c0-104-84-188-187-188h-123v387h130l19 151h-149v97c0 43 12 73 75 73l79 0v135c-13 2-61 6-115 6-116 0-195-70-195-199v-112h-130v-151h130v-387h-346a188 188 0 0 0-188 188v625c0 103 84 187 188 187h625z" horiz-adv-x="1000" />

<glyph glyph-name="chevron-right" unicode="&#xe816;" d="M34 850c-5 0-9-1-13-2a34 34 0 0 1-11-8 32 32 0 0 1-10-24c0-9 3-17 10-24l450-445-444-440a32 32 0 0 1-10-24c0-9 3-17 10-23a33 33 0 0 1 24-10 33 33 0 0 1 24 10l468 463a32 32 0 0 1 10 24 32 32 0 0 1-10 23l-475 470a35 35 0 0 1-23 10z" horiz-adv-x="542" />

<glyph glyph-name="share-box" unicode="&#xe817;" d="M885-86v438l64 61v-499c0-18-7-33-19-46a61 61 0 0 0-45-18h-822a61 61 0 0 0-45 18 62 62 0 0 0-18 46v639a63 63 0 0 0 18 45 60 60 0 0 0 45 19h317l1-2-64-62h-254v-639h822z m-624 255a593 593 0 0 0 70 202 610 610 0 0 0 131 162 610 610 0 0 0 179 108c67 26 138 39 213 39h29l-114 116a31 31 0 0 0-9 23 31 31 0 0 0 31 31 30 30 0 0 0 22-9l187-194-187-193a29 29 0 0 0-21-9 29 29 0 0 0-23 9 31 31 0 0 0-9 22c0 9 3 17 9 23l115 116a126 126 0 0 1-15 1h-17c-66 0-128-11-187-34a549 549 0 0 1-159-94 542 542 0 0 1-118-142 520 520 0 0 1-63-177h-64z" horiz-adv-x="1000" />

<glyph glyph-name="people-walk" unicode="&#xe818;" d="M450 698c-18-18-39-27-64-27-24 0-46 9-64 27-19 18-28 39-28 63 0 24 9 44 28 62 18 18 40 27 64 27 25 0 46-9 64-27 19-18 28-38 28-62 0-24-9-45-28-63z m-64-294l-46 84-46-138 131-214v-286h-87v214l-115 152-131-366h-92l186 714-94-35v-179h-92v250l255 85c6 1 16 2 30 2 29 0 53-13 71-40l104-154h165v-89h-239z" horiz-adv-x="625" />

<glyph glyph-name="calendar" unicode="&#xe819;" d="M938 756c17 0 32-6 44-18 12-12 18-27 18-44v-782c0-16-6-31-18-44a60 60 0 0 0-44-18h-875a60 60 0 0 0-45 18 61 61 0 0 0-18 44v782c0 17 6 32 18 44a60 60 0 0 0 45 18h250v63a30 30 0 0 0 9 22 30 30 0 0 0 22 9 30 30 0 0 0 22-9 30 30 0 0 0 9-22v-63h250v63a30 30 0 0 0 9 22 30 30 0 0 0 22 9 30 30 0 0 0 22-9 30 30 0 0 0 10-22v-63h250z m0-844v782h-250v-31a30 30 0 0 0-10-22 30 30 0 0 0-22-10 30 30 0 0 0-22 10 30 30 0 0 0-9 22v31h-250v-31a30 30 0 0 0-9-22 30 30 0 0 0-22-10 30 30 0 0 0-22 10 30 30 0 0 0-9 22v31h-250v-782h875z m-219 438a30 30 0 0 0-22 9 30 30 0 0 0-9 22v63a30 30 0 0 0 9 22 30 30 0 0 0 22 9h62a30 30 0 0 0 22-9 30 30 0 0 0 10-22v-63a30 30 0 0 0-10-22 30 30 0 0 0-22-9h-62z m0-250a30 30 0 0 0-22 9 30 30 0 0 0-9 22v63a30 30 0 0 0 9 22 30 30 0 0 0 22 9h62a30 30 0 0 0 22-9 30 30 0 0 0 10-22v-63a30 30 0 0 0-10-22 30 30 0 0 0-22-9h-62z m-188 125a30 30 0 0 0 22-9 30 30 0 0 0 10-22v-63a30 30 0 0 0-10-22 30 30 0 0 0-22-9h-62a30 30 0 0 0-22 9 30 30 0 0 0-9 22v63a30 30 0 0 0 9 22 30 30 0 0 0 22 9h62z m0 250a30 30 0 0 0 22-9 30 30 0 0 0 10-22v-63a30 30 0 0 0-10-22 30 30 0 0 0-22-9h-62a30 30 0 0 0-22 9 30 30 0 0 0-9 22v63a30 30 0 0 0 9 22 30 30 0 0 0 22 9h62z m-250 0a30 30 0 0 0 22-9 30 30 0 0 0 10-22v-63a30 30 0 0 0-10-22 30 30 0 0 0-22-9h-62a30 30 0 0 0-22 9 30 30 0 0 0-9 22v63a30 30 0 0 0 9 22 30 30 0 0 0 22 9h62z m0-250a30 30 0 0 0 22-9 30 30 0 0 0 10-22v-63a30 30 0 0 0-10-22 30 30 0 0 0-22-9h-62a30 30 0 0 0-22 9 30 30 0 0 0-9 22v63a30 30 0 0 0 9 22 30 30 0 0 0 22 9h62z" horiz-adv-x="1000" />

<glyph glyph-name="shower" unicode="&#xe81a;" d="M809 711a18 18 0 0 0 0-26l-354-349a18 18 0 0 0-26 0l-46 46a18 18 0 0 0 0 26l25 24a211 211 0 0 0-20 236 144 144 0 0 1-99 39c-80 0-144-64-144-143v-714h-145v714c0 158 130 286 289 286 81 0 155-33 207-87a218 218 0 0 0 216-31l24 25a18 18 0 0 0 26 0l47-46z m-51-147c20 0 37-16 37-35a36 36 0 0 0-37-36 36 36 0 0 0-36 36c0 19 17 35 36 35z m145-71a36 36 0 0 0-36 36 36 36 0 0 0 72 0 36 36 0 0 0-36-36z m144 71c20 0 36-16 36-35a36 36 0 0 0-36-36 36 36 0 0 0-36 36c0 19 17 35 36 35z m-361-71c20 0 36-16 36-36a36 36 0 0 0-36-36 36 36 0 0 0-36 36c0 20 16 36 36 36z m109-36c0 20 16 36 36 36s36-16 36-36a36 36 0 0 0-36-36 36 36 0 0 0-36 36z m180 36c20 0 36-16 36-36a36 36 0 0 0-36-35 36 36 0 0 0-36 35c0 20 16 36 36 36z m-361-71c20 0 36-17 36-36a36 36 0 0 0-36-36 36 36 0 0 0-36 36c0 19 16 36 36 36z m144-72a36 36 0 0 0-36 36 36 36 0 0 0 72 0 36 36 0 0 0-36-36z m145 71c20 0 36-16 36-35a36 36 0 0 0-36-36 36 36 0 0 0-36 36c0 19 16 35 36 35z m-217-142a36 36 0 0 0-36 35 36 36 0 0 0 72 0 36 36 0 0 0-36-35z m145 71c19 0 36-16 36-36a36 36 0 0 0-36-35 36 36 0 0 0-36 35c0 20 16 36 36 36z m-217-71c20 0 36-17 36-36a36 36 0 0 0-36-36 36 36 0 0 0-36 36c0 19 16 36 36 36z m144 0c20 0 37-17 37-36a36 36 0 0 0-37-36 36 36 0 0 0-36 36c0 19 17 36 36 36z m-72-72c20 0 36-16 36-36a36 36 0 0 0-36-35 36 36 0 0 0-36 35c0 20 16 36 36 36z m-72-71c20 0 36-16 36-36a36 36 0 0 0-36-36 36 36 0 0 0-36 36c0 20 16 36 36 36z" horiz-adv-x="1083" />

<glyph glyph-name="people" unicode="&#xe81b;" d="M691 610l-179-181v-510c0-38-31-69-69-69a69 69 0 0 0-69 69v238h-39v-238c0-38-31-69-69-69a69 69 0 0 0-69 69v510l-180 181a60 60 0 0 0 0 84 60 60 0 0 0 84 0l140-141h226l141 141a60 60 0 0 0 83 0 60 60 0 0 0 0-84z m-199 101a138 138 0 0 0-138-138 138 138 0 0 0-138 138 138 138 0 0 0 138 139 138 138 0 0 0 138-139z" horiz-adv-x="708" />

<glyph glyph-name="car-passenger" unicode="&#xe81c;" d="M332 256a99 99 0 0 1-98 98 99 99 0 0 1-98-98 99 99 0 0 1 98-99 99 99 0 0 1 98 99z m22 197h625l-55 219c-2 7-14 17-21 17h-472c-8 0-20-10-22-17l-55-219z m844-197a99 99 0 0 1-99 98 99 99 0 0 1-98-98 99 99 0 0 1 98-99 99 99 0 0 1 99 99z m98 59v-236a19 19 0 0 0-20-20h-59v-79a118 118 0 0 0-236 0v79h-629v-79a118 118 0 0 0-236 0v79h-59a19 19 0 0 0-20 20v236a137 137 0 0 0 138 138h17l65 257c19 77 94 136 174 136h472c80 0 155-58 174-136l64-257h17a137 137 0 0 0 138-138z m-377 120c0-21-14-38-31-38h-124c-17 0-31 17-31 38 0 38 9 83 48 83a65 65 0 0 1 91 0c38 0 47-45 47-83z m-37 129a56 56 0 1 0-112 0 56 56 0 0 0 112 0z m-193-166c0-28-18-51-41-51h-166c-22 0-41 23-41 51 0 51 13 110 64 110a87 87 0 0 1 121 0c51 0 63-59 63-110z m-49 173a75 75 0 1 0-149 0 75 75 0 0 0 149 0z" horiz-adv-x="1304" />

<glyph glyph-name="building" unicode="&#xe81d;" d="M756 850c19 0 36-16 36-36v-928a36 36 0 0 0-36-36h-720a36 36 0 0 0-36 36v928c0 20 16 36 36 36h720z m-468-161v-35c0-10 8-18 18-18h36a18 18 0 0 1 18 18v35a18 18 0 0 1-18 18h-36a18 18 0 0 1-18-18z m0-143v-35c0-10 8-18 18-18h36a18 18 0 0 1 18 18v35a18 18 0 0 1-18 18h-36a18 18 0 0 1-18-18z m0-142v-36c0-10 8-18 18-18h36a18 18 0 0 1 18 18v36a18 18 0 0 1-18 17h-36a18 18 0 0 1-18-17z m0-143v-36c0-10 8-18 18-18h36a18 18 0 0 1 18 18v36a18 18 0 0 1-18 18h-36a18 18 0 0 1-18-18z m-72-179v36a18 18 0 0 1-18 18h-36a18 18 0 0 1-18-18v-36c0-10 8-18 18-18h36a18 18 0 0 1 18 18z m0 143v36a18 18 0 0 1-18 18h-36a18 18 0 0 1-18-18v-36c0-10 8-18 18-18h36a18 18 0 0 1 18 18z m0 143v36a18 18 0 0 1-18 17h-36a18 18 0 0 1-18-17v-36c0-10 8-18 18-18h36a18 18 0 0 1 18 18z m0 143v35a18 18 0 0 1-18 18h-36a18 18 0 0 1-18-18v-35c0-10 8-18 18-18h36a18 18 0 0 1 18 18z m0 143v35a18 18 0 0 1-18 18h-36a18 18 0 0 1-18-18v-35c0-10 8-18 18-18h36a18 18 0 0 1 18 18z m288-715v107a18 18 0 0 1-18 18h-180a18 18 0 0 1-18-18v-107c0-10 8-18 18-18h180a18 18 0 0 1 18 18z m0 286v36a18 18 0 0 1-18 18h-36a18 18 0 0 1-18-18v-36c0-10 8-18 18-18h36a18 18 0 0 1 18 18z m0 143v36a18 18 0 0 1-18 17h-36a18 18 0 0 1-18-17v-36c0-10 8-18 18-18h36a18 18 0 0 1 18 18z m0 143v35a18 18 0 0 1-18 18h-36a18 18 0 0 1-18-18v-35c0-10 8-18 18-18h36a18 18 0 0 1 18 18z m0 143v35a18 18 0 0 1-18 18h-36a18 18 0 0 1-18-18v-35c0-10 8-18 18-18h36a18 18 0 0 1 18 18z m144-572v36a18 18 0 0 1-18 18h-36a18 18 0 0 1-18-18v-36c0-10 8-18 18-18h36a18 18 0 0 1 18 18z m0 143v36a18 18 0 0 1-18 18h-36a18 18 0 0 1-18-18v-36c0-10 8-18 18-18h36a18 18 0 0 1 18 18z m0 143v36a18 18 0 0 1-18 17h-36a18 18 0 0 1-18-17v-36c0-10 8-18 18-18h36a18 18 0 0 1 18 18z m0 143v35a18 18 0 0 1-18 18h-36a18 18 0 0 1-18-18v-35c0-10 8-18 18-18h36a18 18 0 0 1 18 18z m0 143v35a18 18 0 0 1-18 18h-36a18 18 0 0 1-18-18v-35c0-10 8-18 18-18h36a18 18 0 0 1 18 18z" horiz-adv-x="792" />

<glyph glyph-name="plane" unicode="&#xe81e;" d="M982 832c45-46 0-160-69-229l-115-114 115-497a23 23 0 0 0-9-24l-91-68a22 22 0 0 0-14-4c-1 0-3 0-5 0a20 20 0 0 0-15 12l-199 362-185-185 38-138a23 23 0 0 0-6-22l-68-69a24 24 0 0 0-16-6h-2a23 23 0 0 0-17 9l-135 180-180 135a22 22 0 0 0-9 16 24 24 0 0 0 7 18l68 69a24 24 0 0 0 16 7c3 0 5 0 6-1l139-38 184 185-362 199a25 25 0 0 0-12 17 25 25 0 0 0 6 19l92 92c5 5 14 8 21 5l474-113 114 114c69 69 183 114 229 69z" horiz-adv-x="1000" />

<glyph glyph-name="search" unicode="&#xe81f;" d="M991-96c6-6 9-14 9-22 0-9-3-16-9-22a31 31 0 0 0-22-10 31 31 0 0 0-22 10l-302 305a394 394 0 0 0-117-71 378 378 0 0 0-138-25 378 378 0 0 0-152 31 399 399 0 0 0-125 83 384 384 0 0 0-83 124 387 387 0 0 0-30 152 387 387 0 0 0 30 153 384 384 0 0 0 83 124 399 399 0 0 0 125 83 378 378 0 0 0 152 31c53 0 103-10 150-31a399 399 0 0 0 125-83 390 390 0 0 0 83-124c21-48 31-99 31-153 0-47-8-92-24-135a406 406 0 0 0-67-115l303-305z m-601 226a317 317 0 0 1 127 26 327 327 0 0 1 104 71 340 340 0 0 1 70 104 318 318 0 0 1 26 128 318 318 0 0 1-26 128 340 340 0 0 1-70 105 327 327 0 0 1-104 71 317 317 0 0 1-127 25c-46 0-89-8-128-25a327 327 0 0 1-105-71 340 340 0 0 1-70-105 318 318 0 0 1-26-128 318 318 0 0 1 26-128c17-39 41-74 70-104a327 327 0 0 1 104-71 319 319 0 0 1 129-26z" horiz-adv-x="1000" />

<glyph glyph-name="coffee" unicode="&#xe820;" d="M1195 577c0 76-61 137-137 137h-46v-273h46c76 0 137 61 137 136z m-1195-545h1287c0-100-82-182-183-182h-920c-101 0-184 82-184 182z m1333 545c0-150-123-272-275-272h-46v-23c0-87-73-159-161-159h-506c-88 0-161 72-161 159v523c0 24 21 45 46 45h828c152 0 275-122 275-273z" horiz-adv-x="1333" />

<glyph glyph-name="camera" unicode="&#xe821;" d="M583 446c97 0 175-77 175-173 0-95-78-173-175-173s-175 78-175 173c0 96 79 173 175 173z m428 250c86 0 156-69 156-154v-538c0-85-70-154-156-154h-855c-86 0-156 69-156 154v538c0 85 70 154 156 154h136l31 82c15 40 62 72 105 72h311c42 0 90-32 105-72l31-82h136z m-428-692c150 0 273 121 273 269s-122 269-273 269c-150 0-272-120-272-269 0-148 122-269 272-269z" horiz-adv-x="1167" />

<glyph glyph-name="car" unicode="&#xe822;" d="M303 250c0 55-46 100-101 100s-101-45-101-100c0-55 45-100 101-100s101 45 101 100z m23 200h640l-56 223c-2 7-14 17-22 17h-484c-8 0-20-10-22-17l-56-223z m865-200c0 55-46 100-101 100s-101-45-101-100c0-55 45-100 101-100s101 45 101 100z m101 60v-240c0-11-9-20-20-20h-61v-80c0-66-54-120-121-120-67 0-121 54-121 120v80h-646v-80c0-66-54-120-121-120-67 0-121 54-121 120v80h-61a20 20 0 0 0-20 20v240c0 78 63 140 141 140h18l66 262c20 79 97 138 179 138h484c82 0 159-59 179-138l66-262h17c79 0 142-62 142-140z" horiz-adv-x="1292" />

<glyph glyph-name="chart" unicode="&#xe823;" d="M247 538c9 0 16-4 22-10 6-6 9-13 9-22v-625a30 30 0 0 0-9-22 30 30 0 0 0-22-9h-216a30 30 0 0 0-22 9 30 30 0 0 0-9 22v625c0 9 3 16 9 22a30 30 0 0 0 22 10h216z m-31-626v563h-154v-563h154z m371 440c9 0 16-3 22-9 6-6 9-14 9-22v-440a30 30 0 0 0-9-22 30 30 0 0 0-22-9h-216a29 29 0 0 0-22 9 31 31 0 0 0-9 22v440c0 8 3 16 9 22a29 29 0 0 0 22 9h216z m-30-440v378h-155v-378h155z m370 938c9 0 16-3 22-9 6-6 9-14 9-22v-938a30 30 0 0 0-9-22 30 30 0 0 0-22-9h-216a30 30 0 0 0-22 9 30 30 0 0 0-9 22v938c0 8 3 16 9 22a30 30 0 0 0 22 9h216z m-30-938v876h-155v-876h155z" horiz-adv-x="958" />

<glyph glyph-name="road" unicode="&#xe824;" d="M826 272v3l-19 250a27 27 0 0 1-26 25h-145a27 27 0 0 1-26-25l-19-250v-3c-1-13 11-22 22-22h190c12 0 24 9 23 22z m591-365c0-23-7-57-36-57h-548c13 0 24 11 23 25l-15 200a27 27 0 0 1-27 25h-211a27 27 0 0 1-27-25l-15-200c-1-14 10-25 23-25h-548c-30 0-36 34-36 57 0 31 9 62 20 91l325 815c8 20 29 37 50 37h264a27 27 0 0 1-27-25l-12-150a23 23 0 0 1 24-25h129a23 23 0 0 1 23 25l-11 150a27 27 0 0 1-27 25h264c21 0 42-17 50-37l324-815c12-29 21-60 21-91z" horiz-adv-x="1417" />

<glyph glyph-name="picture" unicode="&#xe825;" d="M375 663a188 188 0 0 0-375 0 188 188 0 0 0 375 0z m1000-375v-438h-1375v188l313 312 156-156 500 500 406-406z" horiz-adv-x="1375" />

<glyph glyph-name="pin-location" unicode="&#xe826;" d="M500 517c0 92-75 166-167 166-91 0-166-74-166-166 0-92 75-167 166-167 92 0 167 75 167 167z m167 0c0-40-5-81-22-117l-237-504c-13-28-43-46-75-46s-61 18-74 46l-237 504c-17 36-22 77-22 117 0 184 149 333 333 333 185 0 334-149 334-333z" horiz-adv-x="667" />

<glyph glyph-name="map" unicode="&#xe827;" d="M970 719c8-3 15-8 21-15 6-8 9-16 9-25v-803c0-7-2-13-6-17a21 21 0 0 0-20-7 16 16 0 0 1-4 1l-314 123-311-126-315 124a43 43 0 0 0-21 15 40 40 0 0 0-9 25v813c0 7 2 12 6 17a22 22 0 0 0 17 6h3c2 0 3 0 4-1l315-123 311 123 314-130z m-595-45v-747l250 100v745l-250-98z m-312 92v-736l250-102v746l-250 92z m875-833v730l-250 108v-744l250-94z" horiz-adv-x="1000" />

<glyph glyph-name="clock" unicode="&#xe828;" d="M500 850c69 0 134-13 195-39 61-26 114-62 159-107a502 502 0 0 0 107-159c26-61 39-126 39-195 0-69-13-134-39-195a502 502 0 0 0-107-159 502 502 0 0 0-159-107c-61-26-126-39-195-39-69 0-134 13-195 39a502 502 0 0 0-159 107 502 502 0 0 0-107 159 490 490 0 0 0-39 195c0 69 13 134 39 195a502 502 0 0 0 107 159 502 502 0 0 0 159 107c61 26 126 39 195 39z m0-939c61 0 117 12 170 35a442 442 0 0 1 139 94 452 452 0 0 1 94 140c23 53 35 110 35 170 0 61-12 117-35 170a446 446 0 0 1-94 139 446 446 0 0 1-139 94 422 422 0 0 1-170 35c-60 0-117-12-170-35a446 446 0 0 1-139-94 446 446 0 0 1-94-139 422 422 0 0 1-34-170c0-60 11-117 34-170a452 452 0 0 1 94-140 442 442 0 0 1 139-94c53-23 110-34 170-34z m31 452l148-148c6-6 9-13 9-22 0-8-3-16-9-22a28 28 0 0 0-22-9 28 28 0 0 0-22 9l-155 155c0 0-1 1-1 1l0 1a24 24 0 0 0-8 9 33 33 0 0 0-2 13v313a30 30 0 0 0 9 22 30 30 0 0 0 22 9 30 30 0 0 0 22-9 30 30 0 0 0 9-22v-300z" horiz-adv-x="1000" />

<glyph glyph-name="call" unicode="&#xe829;" d="M945 155c16 0 29-5 39-16 11-10 16-23 16-39v-195c0-16-5-29-16-39s-23-16-39-16c-262 0-485 92-669 276-184 184-276 407-276 669 0 16 5 29 16 39s23 16 39 16h195c16 0 29-5 39-16 11-10 16-23 16-39 0-71 11-138 34-200 7-21 2-39-13-55l-123-122c84-162 206-284 367-367l123 122c12 16 30 20 54 13 68-21 134-31 198-31z" horiz-adv-x="1000" />

<glyph glyph-name="tag" unicode="&#xe82a;" d="M0 483l0 287q2 31 24 54t52 22l287 0q88-6 133-55l426-472q19-28 19-58t-19-52l-334-334q-25-21-57-21t-52 21l-424 475q-55 64-55 133z m125 164q2-31 23-52t51-20q32 0 52 22t21 50q0 33-23 54t-50 20q-33-2-53-23t-21-51z" horiz-adv-x="941" />

<glyph glyph-name="trash" unicode="&#xe82b;" d="M0 633l0 141 289 0 0 76 246 0 0-76 289 0 0-141-824 0z m43-783l0 676 738 0 0-676-738 0z" horiz-adv-x="824" />

<glyph glyph-name="credit-card" unicode="&#xe82c;" d="M0 18l0 664 1000 0 0-664-1000 0z m63 63l874 0 0 296-874 0 0-296z m0 439l874 0 0 100-874 0 0-100z m60-361q0 13 5 21t15 8 14-8 5-21-5-22-14-8-15 8-5 22z m8 0q0-12 3-18t9-6 8 6 3 18-3 17-8 6-9-6-3-17z m43 0q0 13 5 21t14 8 15-8 5-21-5-22-15-8-14 8-5 22z m8 0q0-12 3-18t8-6 9 6 3 18-3 17-9 6-8-6-3-17z m41 0q0 13 5 21t14 8 15-8 5-21-5-22-15-8-14 8-5 22z m8 0q0-12 2-18t9-6 9 6 3 18-3 17-9 6-9-6-2-17z m42 0q0 13 5 21t15 8 15-8 5-21-5-22-15-8-15 8-5 22z m8 0q0-12 3-18t9-6 9 6 3 18-3 17-9 6-9-6-3-17z m39-10l0 6 22 0 0-6-22 0z m32 10q0 13 4 21t15 8 15-8 5-21-5-22-15-8-15 8-4 22z m7 0q0-12 3-18t9-6 9 6 3 18-3 17-9 6-9-6-3-17z m41 0q0 13 5 21t15 8 15-8 4-21-4-22-15-8-15 8-5 22z m8 0q0-12 3-18t9-6 9 6 3 18-3 17-9 6-9-6-3-17z m41 0q0 13 6 21t15 8 14-8 6-21-6-22-14-8-15 8-6 22z m8 0q0-12 4-18t10-6 9 6 2 18-2 17-9 6-10-6-4-17z m43 0q0 13 5 21t15 8 14-8 5-21-5-22-14-8-15 8-5 22z m8 0q0-12 3-18t9-6 8 6 3 18-3 17-8 6-9-6-3-17z" horiz-adv-x="1000" />

<glyph glyph-name="chevron-up" unicode="&#xe82d;" d="M804 130l-372 358-370-358q-26-22-50 0-24 24 0 50l396 390q26 26 48 0l396-390q24-26 0-50-26-22-48 0z" horiz-adv-x="864" />

<glyph glyph-name="up-open-mini" unicode="&#xe82e;" d="M62 230q-26-22-50 0-24 24 0 50l196 190q26 26 48 0l196-190q24-26 0-50-24-22-50 0l-170 158z" horiz-adv-x="464" />

<glyph glyph-name="right-open-mini" unicode="&#xe82f;" d="M13 180l158 170-158 172q-26 26 0 48 26 26 48 0l192-194q24-26 0-50l-192-194q-22-26-48 0-26 22 0 48z" horiz-adv-x="265" />

<glyph glyph-name="left-open-mini" unicode="&#xe830;" d="M252 180q26-26 0-48-26-26-48 0l-192 194q-24 24 0 50l192 194q22 26 48 0 26-22 0-48l-156-172z" horiz-adv-x="265" />

<glyph glyph-name="down-open-mini" unicode="&#xe831;" d="M405 470q22 26 48 0 26-22 0-48l-196-192q-22-22-48 0l-196 192q-26 26 0 48 24 24 50 0l170-156z" horiz-adv-x="466" />

<glyph glyph-name="chevron-down" unicode="&#xe832;" d="M63 570l370-356 372 356q22 26 48 0 26-22 0-48l-396-392q-22-22-48 0l-396 392q-26 26 0 48 24 24 50 0z" horiz-adv-x="866" />

<glyph glyph-name="chevron-left" unicode="&#xe833;" d="M452-20q26-26 0-48-26-26-48 0l-392 394q-24 24 0 50l392 394q22 26 48 0 26-22 0-48l-358-372z" horiz-adv-x="465" />

<glyph glyph-name="arrow-right" unicode="&#xe834;" d="M13-20l358 370-358 372q-26 26 0 48 26 26 48 0l392-394q24-26 0-50l-392-394q-22-26-48 0-26 22 0 48z" horiz-adv-x="465" />

<glyph glyph-name="dot-3" unicode="&#xe835;" d="M110 460q46 0 78-32t32-78q0-44-32-77t-78-33-78 33-32 77q0 46 32 78t78 32z m350 0q46 0 78-32t32-78q0-44-33-77t-77-33-77 33-33 77q0 46 32 78t78 32z m350 0q46 0 78-32t32-78q0-44-32-77t-78-33-78 33-32 77q0 46 32 78t78 32z" horiz-adv-x="920" />
</font>
</defs>
</svg>
